<svg xmlns="http://www.w3.org/2000/svg" width="512" height="390.6" viewBox="0 0 135.46666 103.34625"><path d="M115.476.636C89.1-1.99 50.577 3.686 23.74 14.525l-1.62.698c.49-.024.842-.01.842-.01 4.463.124 4.196 2.908 4.196 2.908v1.689H23.6v-1.15c0-.817-.995-.876-.995-.876-.758 0-.936.525-.936.525-.426.783.297 1.471.297 1.471.371.396 2.229 1.253 2.229 1.253.6.233 1.55.837 1.55.837 1.823 1.085 1.66 3.166 1.66 3.166v1.357c-.213 3.388-4.884 3.284-4.884 3.284-4.875 0-4.766-3.2-4.766-3.2v-1.67h3.795v1.15c0 .98.95 1.025.95 1.025 1.031.04 1.125-.96 1.125-.96.144-.976-.931-1.586-.931-1.586a490.518 490.518 0 0 1-2.828-1.505c-.882-.565-1.234-1.085-1.234-1.085-.634-.793-.584-2.016-.584-2.016v-1.07c0-1.466.396-1.887.396-1.887.005-.01.01-.015.02-.025-26.278 12.274-23.276 25.04 1.203 27.417 26.734 2.585 67.094-2.571 94.233-14.687-.064 0-.114.015-.178.015 0 0-4.602.371-4.706-3.339v-7.162s-.57-3.953 4.572-3.953c0 0 3.349-.104 4.245 1.892 0 0 .431.525.322 2.724h-3.576v-1.134s-.005-.896-.941-.896c0 0-.961.034-.961.792v7.415s-.04.996 1.045.996c0 0 .896-.02.896-1.075v-2.14h-.98v-1.986h4.596v4.205s-.01.877-.376 1.402c0 0-.282.406-.44.59l1.485-.748c24.059-12.33 21.037-24.108-3.428-26.54M37.758 29.191 36.376 18.7h-.322l-1.372 10.492h-3.8l2.349-13.523h5.983l2.343 13.523zm19.16.02-.08-10.2h-.242l-1.853 10.194h-3.695l-1.872-10.194h-.273l-.04 10.2h-3.521l.292-13.533h5.949l1.144 7.4H53l1.193-7.4h5.89l.376 13.532zm17.148-4.176v1.357c-.218 3.388-4.874 3.284-4.874 3.284-4.879 0-4.765-3.2-4.765-3.2v-1.67h3.784v1.15c0 .98.951 1.025.951 1.025 1.04.04 1.125-.96 1.125-.96.143-.976-.931-1.586-.931-1.586l-2.839-1.506c-.872-.564-1.218-1.084-1.218-1.084-.63-.793-.585-2.016-.585-2.016v-1.07c0-1.466.397-1.887.397-1.887 1.005-1.883 4.517-1.66 4.517-1.66 4.468.124 4.195 2.908 4.195 2.908l.005 1.689h-3.551v-1.15c0-.817-1.006-.876-1.006-.876-.757 0-.93.525-.93.525-.427.783.296 1.471.296 1.471.367.396 2.22 1.253 2.22 1.253.604.233 1.57.837 1.57.837 1.813 1.085 1.64 3.166 1.64 3.166m13.938.906c0 3.725-4.706 3.67-4.706 3.67-5.424 0-5.022-3.843-5.022-3.843v-10.15h3.863l.02 10.234c0 1.144 1.09 1.09 1.09 1.09 1.03 0 .976-1.115.976-1.115V15.62h3.779zm16.272 3.27h-4.215l-3.745-8.273h-.159l.213 8.272H92.84V15.684h4.334l3.62 8.193h.154l-.247-8.193h3.576z" style="clip-rule:nonzero;fill:#004ca1;fill-opacity:1;fill-rule:nonzero;stroke:none;stroke-width:1.26806"/><path d="M69.892 86.292v2.879h9.102v1.617H71.93v2.808h13.989v1.46h-13.99v7.502h17.499V99.75h-13.99v-1.886h13.99v-7.076H82.35V89.17h9.108v-2.879zM36.274 73.804v15.133h3.72v-6.072h3.158v-3.089h-3.159v-5.972zM22.513 90.18h17.48v12.384h-17.48ZM36.415 93.2H26.08v6.34h10.335zM65.175 73.804v15.133H61.52v-6.072h-4.741v-3.083h4.682v-5.978z" style="fill:#004ca1;fill-opacity:1;fill-rule:nonzero;stroke:none;stroke-width:1.49464"/><path d="M56.014 103.346c-5.348 0-9.68-3.135-9.68-7.006 0-3.87 4.332-7.006 9.68-7.006 5.36 0 9.698 3.135 9.698 7.006 0 3.871-4.338 7.006-9.698 7.006m6.037-7.006c0-2.154-2.709-3.912-6.037-3.912-3.322 0-6.013 1.758-6.013 3.912 0 2.16 2.691 3.918 6.013 3.918 3.328 0 6.037-1.758 6.037-3.918M27.5 74.353s-.48 8.19 6.141 11.577l-1.909 2.645s-4.852-3.217-5.955-6.72c-1.098 3.503-5.955 6.72-5.955 6.72l-1.91-2.645c6.639-3.386 6.154-11.577 6.154-11.577zM50.497 81.855c-1.104 3.503-5.547 6.44-5.547 6.44l-1.909-2.64c6.224-3.111 5.733-11.302 5.733-11.302h3.434s-.485 8.19 5.745 11.303l-1.91 2.639s-4.449-2.937-5.546-6.44" style="clip-rule:nonzero;fill:#004ca1;fill-opacity:1;fill-rule:nonzero;stroke:none;stroke-width:1.49464"/><path d="M110.434 73.804v18.654h3.714v-9.593h3.158v-3.089h-3.158v-5.972z" style="fill:#004ca1;fill-opacity:1;fill-rule:nonzero;stroke:none;stroke-width:1.49464"/><path d="M101.66 74.353s-.491 8.19 6.147 11.577l-1.915 2.645s-4.858-3.217-5.961-6.72c-1.098 3.503-5.95 6.72-5.95 6.72l-1.909-2.645c6.633-3.386 6.154-11.577 6.154-11.577z" style="clip-rule:nonzero;fill:#004ca1;fill-opacity:1;fill-rule:nonzero;stroke:none;stroke-width:1.49464"/><path d="M97.228 90.169v12.395h16.902v-3.071H100.8v-9.324zM71.93 74.592v9.943h17.498v-9.943zm3.509 2.814h10.48v4.315h-10.48z" style="fill:#004ca1;fill-opacity:1;fill-rule:nonzero;stroke:none;stroke-width:1.49464"/></svg>